<svg xmlns="http://www.w3.org/2000/svg" viewBox="0 0 400 400" width="300" height="300">
	<style>
		tspan { white-space:pre }
		.shp0 { fill: #000000 } 
	</style>
	<path id="Shape 1" class="shp0" d="M221 113.48C218.24 113.48 216 111.25 216 108.48C216 105.72 218.24 103.48 221 103.48C223.76 103.48 226 105.72 226 108.48C226 111.25 223.76 113.48 221 113.48Z" />
	<path id="Shape 3" class="shp0" d="M219.5 107.51L224.5 107.46L225.5 213.46L220.5 213.51L219.5 107.51Z" />
	<path id="Shape 2" class="shp0" d="M223 216.48C220.24 216.48 218 214.25 218 211.48C218 208.72 220.24 206.48 223 206.48C225.76 206.48 228 208.72 228 211.48C228 214.25 225.76 216.48 223 216.48Z" />
</svg>